<svg width="29.999999999999996" height="34" xmlns="http://www.w3.org/2000/svg">

 <g>
  <title>background</title>
  <rect fill="none" id="canvas_background" height="402" width="582" y="-1" x="-1"/>
 </g>
 <g>
  <title>Layer 1</title>
  <g fill="rgb(0%,0%,0%)" id="surface1">
   <path id="svg_1" fill-rule="nonzero" fill="#DDDDDD" d="m29.12891,27.94922c0.6289,0.62109 0.6289,1.62891 0,2.25391l-1.51563,1.5039c-0.625,0.6211 -1.64062,0.6211 -2.26562,0l-10.34766,-10.22265l-10.34766,10.22656c-0.625,0.61719 -1.64062,0.61719 -2.26562,0l-1.51563,-1.50781c-0.6289,-0.625 -0.6289,-1.63282 0,-2.25391l12.99219,-12.90625c0.30078,-0.29688 0.70703,-0.46484 1.13281,-0.46484c0.42579,0 0.83204,0.16796 1.13282,0.46484l13,12.90625zm0,0"/>
   <path id="svg_2" fill-rule="nonzero" fill="#DDDDDD" d="m29.12891,15.19922c0.6289,0.62109 0.6289,1.62891 0,2.25391l-1.51563,1.5039c-0.625,0.6211 -1.64062,0.6211 -2.26562,0l-10.34766,-10.22265l-10.34766,10.22656c-0.625,0.61719 -1.64062,0.61719 -2.26562,0l-1.51563,-1.50781c-0.6289,-0.625 -0.6289,-1.63282 0,-2.25391l12.99219,-12.90625c0.30078,-0.29688 0.70703,-0.46484 1.13281,-0.46484c0.42579,0 0.83204,0.16796 1.13282,0.46484l13,12.90625zm0,0"/>
  </g>
 </g>
</svg>