<svg xmlns="http://www.w3.org/2000/svg" width="25" height="23" viewBox="0 0 25 23"><g><g><path fill="#fff" d="M11.819 19.353a1.89 1.89 0 0 0-.958.25c-.291.168-.52.388-.685.661a1.728 1.728 0 0 0-.248.912c0 .502.185.931.555 1.288.37.357.816.536 1.336.536.52 0 .965-.179 1.335-.536.37-.357.555-.786.555-1.288 0-.121-.011-.243-.035-.364a1.583 1.583 0 0 0-.284-.65 1.997 1.997 0 0 0-.839-.673 1.732 1.732 0 0 0-.354-.102 2.121 2.121 0 0 0-.378-.034zm6.806 0c-.52 0-.965.178-1.335.535-.37.357-.555.787-.555 1.288 0 .502.185.931.555 1.288.37.357.815.536 1.335.536s.965-.179 1.336-.536c.37-.357.555-.786.555-1.288 0-.501-.185-.93-.555-1.288a1.855 1.855 0 0 0-1.336-.535zm1.49-2.918h-9.1l-2.41-8.8h14.558zm4.738-9.95a.709.709 0 0 0-.603-.308H8.203l-1.23-4.035a3.077 3.077 0 0 0-.448-.935c-.19-.258-.39-.44-.603-.547a2.695 2.695 0 0 0-.555-.217 2.01 2.01 0 0 0-.473-.057H1.656a.72.72 0 0 0-.52.206.697.697 0 0 0-.213.524c0 .121.032.24.095.353a.635.635 0 0 0 .272.262c.118.061.24.092.366.092h3.238c.063 0 .122.007.177.022.055.016.13.08.225.194.094.114.173.285.236.513l4.183 14.817a.82.82 0 0 0 .402.456.698.698 0 0 0 .307.069h10.21a.761.761 0 0 0 .437-.137.678.678 0 0 0 .272-.342L24.96 7.157a.71.71 0 0 0-.106-.673z"/></g></g></svg>