<svg xmlns="http://www.w3.org/2000/svg" width="80px" height="80px" viewBox="0 0 72 59"><g><g><path fill="#7158e5" d="M68.19 42.895c-.702 0-1.273-.55-1.273-1.226v-1.227h2.545v2.453zM59.805 56.75c-2.683 0-4.865-2.104-4.865-4.69 0-2.587 2.182-4.69 4.865-4.69 2.683 0 4.865 2.104 4.865 4.69 0 2.586-2.182 4.69-4.865 4.69zm-39.521 0c-2.683 0-4.866-2.104-4.866-4.69 0-2.587 2.183-4.69 4.866-4.69 2.682 0 4.865 2.104 4.865 4.69 0 2.586-2.183 4.69-4.865 4.69zm32.26-23.091v-7.072h9.977l1.834 7.072zm0-11.69h8.459c1.362 0 2.47 1.068 2.47 2.381v.072H52.546zm-21.947-9.173c1.123-3.33 2.824-7.95 3.91-9.323.997-1.26 2.873-1.504 4.181-.543 1.308.962 1.56 2.77.563 4.031-.389.492-1.702 1.713-6.131 4.366-.894.536-1.765 1.04-2.523 1.47zm-6.383-1.469c-4.429-2.653-5.742-3.874-6.131-4.366-.998-1.26-.745-3.069.563-4.03a3.041 3.041 0 0 1 1.806-.589c.899 0 1.789.39 2.375 1.131 1.086 1.373 2.787 5.994 3.91 9.324-.757-.43-1.629-.934-2.523-1.47zm42.473 22.397l-1.857-7.16c.507-.105.888-.539.888-1.06V24.35c0-2.507-2.115-4.546-4.715-4.546h-8.458v-2.381c0-1.234-1.041-2.237-2.32-2.237H34.497l9.557-3.686c.576-.222.856-.852.626-1.407-.23-.555-.884-.825-1.46-.603l-7.825 3.018c2.384-1.475 4.744-3.099 5.642-4.234 1.748-2.21 1.306-5.38-.987-7.065-2.293-1.686-5.58-1.259-7.329.951-1.277 1.615-2.963 6.154-4.054 9.351-1.091-3.197-2.777-7.736-4.054-9.35-1.749-2.21-5.036-2.638-7.329-.952s-2.735 4.855-.987 7.065c.898 1.136 3.257 2.759 5.642 4.234L14.115 9.49c-.576-.222-1.23.048-1.46.603-.23.555.05 1.185.626 1.407l9.557 3.686H7.111c-1.28 0-2.32 1.003-2.32 2.237V37.05c0 .597.502 1.082 1.122 1.082.62 0 1.123-.485 1.123-1.083V17.424c0-.04.033-.072.075-.072h43.114c.041 0 .075.032.075.072V37.05c0 .597.502 1.082 1.123 1.082.62 0 1.122-.484 1.122-1.082v-1.227H65.797c1.63.001 3.013 1.032 3.488 2.453h-3.49c-.62 0-1.124.485-1.124 1.083v2.309c0 1.87 1.578 3.391 3.518 3.391h1.273v4.763h-2.936c-.964-2.685-3.612-4.618-6.72-4.618-3.109 0-5.756 1.933-6.72 4.618h-.54v-8.154c0-.598-.503-1.083-1.123-1.083s-1.123.485-1.123 1.083v8.154H27.005c-.965-2.685-3.612-4.619-6.72-4.619-3.109 0-5.756 1.934-6.72 4.619H7.11a.073.073 0 0 1-.075-.072v-2.382h4.865c.62 0 1.123-.484 1.123-1.082 0-.598-.503-1.083-1.123-1.083H1.123c-.62 0-1.123.485-1.123 1.083s.503 1.082 1.123 1.082H4.79v2.382c0 1.233 1.04 2.237 2.32 2.237h6.065l-.002.072c0 3.78 3.19 6.855 7.11 6.855 3.921 0 7.111-3.075 7.111-6.855l-.001-.072h25.303l-.002.072c0 3.78 3.19 6.855 7.11 6.855 3.922 0 7.112-3.075 7.112-6.855l-.002-.072h3.67c.62 0 1.122-.485 1.122-1.083V39.36c0-2.851-2.181-5.22-5.02-5.636z"/></g><g><path fill="#7158e5" d="M17.89 24.422h-4.791c-.62 0-1.123.485-1.123 1.083v9.236c0 .598.503 1.083 1.123 1.083s1.123-.485 1.123-1.083v-3.536h2.47c.62 0 1.123-.484 1.123-1.082 0-.598-.503-1.083-1.123-1.083h-2.47v-2.453h3.667c.62 0 1.123-.485 1.123-1.082 0-.598-.503-1.083-1.123-1.083z"/></g><g><path fill="#7158e5" d="M24.476 30.195h-1.87v-3.608h1.87c1.032 0 1.872.81 1.872 1.804 0 .995-.84 1.804-1.872 1.804zm2.25 1.518c1.123-.71 1.867-1.933 1.867-3.322 0-2.188-1.847-3.969-4.117-3.969h-2.994c-.62 0-1.123.485-1.123 1.083v9.236c0 .598.503 1.083 1.123 1.083s1.123-.485 1.123-1.083V32.36h1.87l2.061 2.981c.216.313.572.483.935.483.214 0 .43-.06.622-.182a1.058 1.058 0 0 0 .311-1.501z"/></g><g><path fill="#7158e5" d="M35.854 33.659h-3.668v-2.457l.075.003h2.395c.62 0 1.123-.484 1.123-1.082 0-.598-.503-1.083-1.123-1.083h-2.395c-.026 0-.05.003-.075.004v-2.457h3.668c.62 0 1.123-.485 1.123-1.082 0-.598-.503-1.083-1.123-1.083h-4.79c-.62 0-1.124.485-1.124 1.083v9.236c0 .598.503 1.083 1.123 1.083h4.79c.62 0 1.124-.485 1.124-1.083s-.503-1.082-1.123-1.082z"/></g><g><path fill="#7158e5" d="M44.237 33.659H40.57v-2.454h1.273c.62 0 1.123-.484 1.123-1.082 0-.598-.503-1.083-1.123-1.083h-1.273v-2.453h3.668c.62 0 1.123-.485 1.123-1.082 0-.598-.503-1.083-1.123-1.083h-4.79c-.62 0-1.123.485-1.123 1.083v9.236c0 .598.502 1.083 1.123 1.083h4.79c.62 0 1.123-.485 1.123-1.083s-.503-1.082-1.123-1.082z"/></g></g></svg>