<svg xmlns="http://www.w3.org/2000/svg" width="18" height="13" viewBox="0 0 18 13"><g><g><path fill="#fff" d="M1.996 11.208c-.105 0-.225-.046-.36-.136a1.341 1.341 0 0 1-.343-.333c-.093-.13-.14-.247-.14-.35V2.584l7.506 5.812c.105.091.228.137.369.137a.692.692 0 0 0 .369-.137l7.506-5.812v7.875c0 .5-.094.75-.282.75zm0-9.818h14.625L9.028 7.27 1.452 1.407c.093-.012.275-.017.544-.017zm16.014.136a.313.313 0 0 0 0-.204l-.035-.103c-.14-.613-.592-.92-1.354-.92H1.996a2.77 2.77 0 0 0-1.01.187C.663.611.42.782.256.998l-.088.085a.473.473 0 0 0-.123.443.148.148 0 0 0-.017.068v8.796c0 .454.21.886.633 1.295.421.41.867.614 1.335.614h14.625c.434 0 .777-.193 1.029-.58a2.38 2.38 0 0 0 .378-1.33V1.57z"/></g></g></svg>