<svg xmlns="http://www.w3.org/2000/svg" width="80px" height="80px" viewBox="0 0 72 65"><g><g><path fill="#7158e5" d="M69.15 43.613a1.435 1.435 0 0 0-1.98 0c-.261.25-.411.599-.411.954 0 .357.15.705.41.955a1.438 1.438 0 0 0 1.98 0c.26-.251.41-.6.41-.955s-.149-.702-.41-.954z"/></g><g><path fill="#7158e5" d="M69 27.37c0 .582-.49 1.055-1.094 1.055h-7.29l-4.77-8.101h12.06c.603 0 1.094.472 1.094 1.054zM56.44 29.867a1.446 1.446 0 0 0-1.063.134c-.322.18-.557.475-.653.82l-.545 1.966-7.271-12.462h5.717l5.94 10.092zm-16.673-1.441l4.383-7.32 4.27 7.32zm7.944 33.197h-7.283V31.125h7.283zm-10.084 0H24.296c-1.607 0-2.914-1.26-2.914-2.809V31.125h1.752c.773 0 1.4-.604 1.4-1.35 0-.746-.627-1.35-1.4-1.35h-2.9c-.603 0-1.093-.473-1.093-1.054v-5.993c0-.582.49-1.054 1.093-1.054H32.33l-4.834 8.07a1.31 1.31 0 0 0 .102 1.498 1.43 1.43 0 0 0 1.474.482l4.005-1.036 1.072 3.861c.146.528.608.919 1.17.99a1.411 1.411 0 0 0 1.396-.663l.914-1.527zM27.99 10.547c0-3.902 3.292-7.076 7.34-7.076 3.848 0 7.012 2.87 7.314 6.507a5.897 5.897 0 0 0-2.944-.781c-3.182 0-5.77 2.495-5.77 5.563a5.38 5.38 0 0 0 .81 2.838c-3.773-.29-6.75-3.341-6.75-7.051zm13.395 9.776l-5.406 9.028-.56-2.016a1.358 1.358 0 0 0-.652-.82 1.446 1.446 0 0 0-1.063-.136l-2.091.541 3.95-6.597zm-1.685-2.7c-1.638 0-2.97-1.284-2.97-2.863s1.332-2.863 2.97-2.863c1.638 0 2.97 1.284 2.97 2.863v2.863zm5.77-2.863c0-1.578 1.333-2.863 2.97-2.863 1.638 0 2.97 1.284 2.97 2.863s-1.332 2.863-2.97 2.863h-2.97zm7.34-11.29c4.048 0 7.34 3.175 7.34 7.077 0 3.71-2.977 6.76-6.749 7.051.514-.831.81-1.802.81-2.838 0-3.068-2.588-5.563-5.77-5.563a5.897 5.897 0 0 0-2.944.78c.302-3.636 3.465-6.506 7.314-6.506zm15.096 14.153h-8.109c1.942-1.782 3.155-4.294 3.155-7.076 0-5.39-4.55-9.777-10.141-9.777-3.72 0-6.976 1.942-8.74 4.828C42.304 2.712 39.048.77 35.33.77c-5.592 0-10.141 4.386-10.141 9.777 0 2.782 1.213 5.294 3.154 7.076h-8.109c-2.147 0-3.894 1.684-3.894 3.755v5.993c0 1.5.918 2.797 2.24 3.398v12.448H1.495c-.773 0-1.4.605-1.4 1.35 0 .746.627 1.35 1.4 1.35h17.087v3.46h-6.116c-.774 0-1.4.605-1.4 1.35 0 .747.626 1.351 1.4 1.351h6.116v6.735c0 3.038 2.563 5.51 5.715 5.51h39.549c3.151 0 5.715-2.472 5.715-5.51v-8.085c0-.746-.627-1.35-1.4-1.35-.774 0-1.401.604-1.401 1.35v8.085c0 1.549-1.307 2.81-2.914 2.81H50.513V32.008l2.911 4.99a1.41 1.41 0 0 0 1.396.677 1.385 1.385 0 0 0 1.178-.99l1.071-3.862 4.005 1.036a1.43 1.43 0 0 0 1.47-.478 1.31 1.31 0 0 0 .11-1.493l-.45-.764h4.555v7.904c0 .745.627 1.35 1.4 1.35.774 0 1.401-.605 1.401-1.35v-8.26c1.323-.601 2.24-1.898 2.24-3.399v-5.992c0-2.07-1.746-3.755-3.894-3.755z"/></g><g><path fill="#7158e5" d="M8.138 49.773a1.435 1.435 0 0 0-1.98 0c-.26.252-.41.599-.41.955 0 .355.15.703.41.955a1.438 1.438 0 0 0 1.98 0c.262-.252.412-.6.412-.955s-.15-.703-.412-.955z"/></g><g><path fill="#7158e5" d="M14.018 37.057h-7.95c-.773 0-1.4.605-1.4 1.35 0 .746.627 1.35 1.4 1.35h7.95c.773 0 1.4-.604 1.4-1.35 0-.745-.627-1.35-1.4-1.35z"/></g></g></svg>