<svg xmlns="http://www.w3.org/2000/svg" width="25px" height="25px" viewBox="0 0 25 25"><g><g><path fill="#686868" d="M17.824 12.9c0 2.59-2.17 4.693-4.846 4.693-2.674 0-4.844-2.102-4.844-4.694 0-2.594 2.17-4.695 4.844-4.695 2.676 0 4.846 2.101 4.846 4.695zm4.466 8.38c0 .528-.43.958-.958.958H4.534a.96.96 0 0 1-.958-.958V11.09H5.79c-.2.658-.31 1.35-.31 2.071 0 4.011 3.358 7.265 7.498 7.265 4.141 0 7.5-3.254 7.5-7.265 0-.72-.11-1.413-.31-2.07h2.122zM21.193 3.57c.597 0 1.086.49 1.086 1.087v2.599a1.09 1.09 0 0 1-1.086 1.086h-2.726a1.089 1.089 0 0 1-1.086-1.086V4.656a1.09 1.09 0 0 1 1.086-1.087zM.894 3.986v17.93a3.105 3.105 0 0 0 3.098 3.094H21.92a3.104 3.104 0 0 0 3.096-3.094V3.986A3.105 3.105 0 0 0 21.92.89H3.99A3.106 3.106 0 0 0 .895 3.986z"/></g></g></svg>