<svg xmlns="http://www.w3.org/2000/svg" width="14" height="25" viewBox="0 0 14 25"><defs><linearGradient id="trgja" x1="2.77" x2="57.38" y1="24.25" y2="-21.38" gradientUnits="userSpaceOnUse"><stop offset="0" stop-color="#9e2ffe"/><stop offset="1" stop-color="#12aad5"/></linearGradient></defs><g><g><path fill="url(#trgja)" d="M2.808 22.857c-.41 0-.743-.312-.743-.696v-.928h9.608v.928c0 .384-.333.696-.743.696zm0-10.534h8.865v7.518H2.065v-6.822c0-.384.333-.696.743-.696zM8.404 5.64h3.269v5.29H8.404zM9.99 2.67c0-.435.378-.79.842-.79.464 0 .842.355.842.79v1.578H9.989zm.842-2.181c-1.283 0-2.328.978-2.328 2.18v1.579h-.842c-.41 0-.742.311-.742.696v5.986H4.046v-.789c0-.384-.333-.696-.743-.696s-.743.312-.743.696v.803c-1.112.115-1.98 1.002-1.98 2.075v9.142c0 1.152 1 2.089 2.228 2.089h8.122c1.229 0 2.229-.937 2.229-2.089V2.67c0-1.203-1.044-2.181-2.328-2.181z"/></g></g></svg>