<svg xmlns="http://www.w3.org/2000/svg" width="80px" height="80px" viewBox="0 0 73 53"><g><g><path fill="#7158e5" d="M62.694 38.639a3.799 3.799 0 0 0-1.179-2.746 4.088 4.088 0 0 0-2.833-1.137H52.39v-2.79a.113.113 0 0 1 0-.074h17.349c-.123.192-.276.458-.414.694h-.046l-2.649 4.429a1.216 1.216 0 0 0 0 1.27l2.65 4.428c.137.236.306.502.413.723h-6.998zm-2.603 10.348c-.008.746-.634 1.35-1.409 1.358H14.63c-.374 0-.732-.144-.995-.399a1.33 1.33 0 0 1-.368-.915V38.698c0-.75.63-1.358 1.409-1.358h44.023c.373 0 .731.143.995.398.264.254.413.6.413.96zm-48.31-13.094a3.796 3.796 0 0 0-1.149 2.746v4.812H3.59c.107-.222.275-.502.413-.723l2.65-4.429a1.216 1.216 0 0 0 0-1.27l-2.65-4.428c-.138-.236-.306-.502-.413-.723h17.318a.113.113 0 0 1 0 .073v2.79h-6.278a4.088 4.088 0 0 0-2.833 1.137zm10.963-5.787l-.091-.088a2.783 2.783 0 0 0-1.838-.694h-.566a16.18 16.18 0 0 1-.613-2.214 16.247 16.247 0 0 1-.306-3.16c0-9.224 7.757-16.703 17.326-16.703 9.568 0 17.325 7.479 17.325 16.704a16.248 16.248 0 0 1-.306 3.159 16.18 16.18 0 0 1-.612 2.214h-.567c-.68.002-1.336.25-1.837.694l-.092.088a2.58 2.58 0 0 0-.796 1.86v2.79H23.556v-2.79a2.581 2.581 0 0 0-.812-1.86zM21.121 8.982C29.7.707 43.612.703 52.196 8.973c4.126 3.975 6.443 9.369 6.44 14.992a20.603 20.603 0 0 1-.704 5.374h-2.128c.173-.581.321-1.167.444-1.757 1.968-10.427-5.205-20.418-16.021-22.316-10.816-1.897-21.18 5.018-23.148 15.445a18.512 18.512 0 0 0 0 6.87c.122.591.27 1.177.444 1.758h-2.128c-1.968-7.285.211-15.029 5.726-20.357zM69.278 37.65l2.282-3.706.015-.103c.512-.709.828-1.532.919-2.391 0-1.21-.658-2.111-2.726-2.111h-9.187c.143-.6.265-1.21.367-1.83C63.004 14.565 53.788 2.466 40.362.485 26.937-1.496 14.388 7.39 12.332 20.332a22.869 22.869 0 0 0 0 7.176c.092.61.214 1.22.368 1.83H3.512c-2.067 0-2.725.901-2.725 2.112.09.859.407 1.682.918 2.391l2.282 3.779-2.22 3.809a4.982 4.982 0 0 0-.92 2.391c0 1.21.66 2.11 2.726 2.11h7.06v2.953a3.788 3.788 0 0 0 1.071 2.776l.077.088a4.09 4.09 0 0 0 2.848 1.137h44.069c2.218-.016 4.004-1.759 3.996-3.897v-2.953h7.059c2.067 0 2.726-.9 2.726-2.11a4.982 4.982 0 0 0-.92-2.392z"/></g><g><path fill="#7158e5" d="M40.14 22.77c-.247.266-.364.62-.322.974l.352 3.13-2.97-1.285a1.347 1.347 0 0 0-1.057 0l-2.97 1.284.351-3.13a1.229 1.229 0 0 0-.383-1.032l-2.128-2.274 3.154-.635c.405-.05.762-.279.965-.62l1.531-2.671 1.623 2.671c.184.31.496.53.858.606l3.185.65zm5.625-4.063c-.18-.178-.412-.3-.665-.351l-4.838-.99-2.466-4.088c-.36-.6-1.157-.803-1.779-.455-.196.11-.358.266-.472.455L33.08 17.41l-4.838.99c-.704.14-1.157.804-1.01 1.482.046.217.152.419.305.584l3.308 3.572-.521 4.739c-.079.688.436 1.308 1.15 1.384.23.025.462-.01.672-.1l4.517-2.022 4.456 1.919c.641.313 1.424.067 1.75-.55.115-.218.161-.463.134-.705l-.521-4.739 3.261-3.484a1.223 1.223 0 0 0 .022-1.774z"/></g></g></svg>