<svg xmlns="http://www.w3.org/2000/svg" width="25px" height="25px" viewBox="0 0 25 22"><g><g><path fill="#686868" d="M8.667 11.49L19.53 4.8c.195-.12.396.143.228.299l-8.965 8.333a1.858 1.858 0 0 0-.576 1.112l-.306 2.263c-.04.303-.464.333-.548.04L8.19 12.72c-.135-.47.061-.973.478-1.23zm-7.363-.97l5.558 2.074 2.151 6.919a.654.654 0 0 0 1.04.313L13.15 17.3a.924.924 0 0 1 1.127-.031l5.588 4.057c.385.28.93.069 1.026-.396l4.094-19.692a.655.655 0 0 0-.877-.744l-22.812 8.8a.656.656 0 0 0 .007 1.226z"/></g></g></svg>