<svg xmlns="http://www.w3.org/2000/svg" width="16" height="17" viewBox="0 0 16 17"><g><g><path fill="#fff" d="M2.938 1.331a.395.395 0 0 1 .225-.064h.032a83.766 83.766 0 0 1 2.042 3.112.763.763 0 0 1-.097.323L4.37 6.105l-.322.565.386.5c.482.688 1.205 1.521 2.17 2.5.986 1.01 1.816 1.747 2.491 2.21l.53.354.531-.322c.29-.15.584-.312.884-.484.3-.172.472-.269.515-.29a.756.756 0 0 1 .321-.097 88.87 88.87 0 0 1 3.119 2.097c.01.032.01.067 0 .104a.382.382 0 0 1-.065.121c-.31.43-.659.844-1.045 1.242-.385.398-.659.63-.82.694-1.939-.108-4.406-1.661-7.402-4.661-2.995-3-4.535-5.468-4.62-7.404.063-.182.289-.467.674-.855a9.896 9.896 0 0 1 1.222-1.048zM3.967.67C3.774.423 3.506.299 3.163.299c-.3 0-.563.08-.788.242-.171.118-.396.285-.675.5-.278.226-.627.564-1.045 1.016-.428.473-.643.855-.643 1.145.086 2.204 1.731 4.92 4.935 8.145 1.608 1.602 3.086 2.817 4.437 3.645 1.35.828 2.577 1.264 3.68 1.307h.033c.29 0 .661-.215 1.117-.645.455-.43.796-.785 1.02-1.065.247-.3.413-.516.499-.645.214-.333.305-.645.273-.935a1.04 1.04 0 0 0-.386-.678 55.938 55.938 0 0 0-3.247-2.161.93.93 0 0 0-.498-.13c-.246 0-.504.076-.771.227-.258.129-.734.397-1.431.806-.622-.452-1.404-1.15-2.347-2.097a24.071 24.071 0 0 1-.522-.54l-.474-.508c-.15-.161-.29-.32-.418-.476-.129-.156-.25-.304-.362-.443a5.507 5.507 0 0 1-.297-.404 66.74 66.74 0 0 0 .771-1.435c.268-.506.3-.93.097-1.274A58.798 58.798 0 0 0 3.967.67z"/></g></g></svg>