<svg xmlns="http://www.w3.org/2000/svg" width="24" height="24" viewBox="0 0 24 24"><g><g><path fill="#fff" d="M12.012 0c.798 0 1.61.156 2.44.47.829.312 1.556.719 2.182 1.22a6.85 6.85 0 0 1 1.536 1.7c.399.633.598 1.255.598 1.865V9.01c0 1.095-.23 2.291-.692 3.59-.461 1.297-1.16 2.314-2.1 3.05l6.546 3.12.14.046c.11.047.235.118.376.211.141.094.286.2.434.317.149.117.274.258.376.422a.912.912 0 0 1 .152.481v2.276c0 .407-.145.755-.434 1.044-.29.29-.637.434-1.044.434H1.502a1.45 1.45 0 0 1-1.068-.434A1.423 1.423 0 0 1 0 22.522v-2.276c0-.14.055-.293.164-.457.11-.164.231-.301.364-.41.133-.11.285-.22.457-.33.173-.109.29-.179.352-.21.063-.032.118-.055.165-.07l6.592-3.12c-.938-.767-1.646-1.811-2.123-3.133-.477-1.321-.716-2.49-.716-3.507V5.255c0-.813.329-1.63.986-2.451C6.897 1.982 7.754 1.31 8.81.786 9.865.262 10.933 0 12.012 0zm0 1.501c-.813 0-1.635.204-2.464.61-.828.407-1.501.904-2.017 1.49-.516.587-.774 1.138-.774 1.654V9.01c0 .86.2 1.841.598 2.944.399 1.103.958 1.943 1.677 2.522.438.344.622.794.552 1.349-.07.555-.356.95-.857 1.185l-6.592 3.12c-.422.188-.633.477-.633.868v1.525l20.997-.023v-1.455l-.024-.305-.082-.235-.117-.152-.13-.106-.117-.07-.093-.035-.047-.012-6.546-3.097c-.5-.234-.79-.633-.868-1.196a1.555 1.555 0 0 1 .235-.974c.094-.148.203-.277.328-.387.735-.563 1.29-1.392 1.666-2.487.375-1.095.563-2.088.563-2.98V5.256c0-.39-.156-.81-.47-1.255a5.51 5.51 0 0 0-1.196-1.22 6.642 6.642 0 0 0-1.7-.915 5.383 5.383 0 0 0-1.89-.364z"/></g></g></svg>