<svg xmlns="http://www.w3.org/2000/svg" width="25px" height="25px" viewBox="0 0 32 19"><g><g><path fill="#686868" d="M27.442 12.185c1.054 1.029 2.167 1.997 3.112 3.13.418.503.813 1.023 1.116 1.607.428.83.04 1.745-.705 1.794l-4.629-.002c-1.194.1-2.146-.381-2.947-1.198-.641-.653-1.235-1.347-1.851-2.022-.253-.276-.517-.536-.833-.74-.632-.411-1.18-.285-1.542.374-.368.67-.451 1.412-.487 2.16-.05 1.09-.38 1.376-1.474 1.426-2.34.11-4.561-.244-6.624-1.424-1.82-1.04-3.23-2.51-4.458-4.173C3.73 9.877 1.9 6.319.254 2.66c-.37-.824-.1-1.266.81-1.282 1.51-.03 3.02-.027 4.532-.002.614.009 1.02.361 1.258.94.817 2.01 1.816 3.921 3.071 5.693.335.472.675.944 1.16 1.276.538.367.946.245 1.199-.353.16-.379.23-.787.266-1.193.12-1.398.136-2.793-.074-4.185-.129-.869-.618-1.431-1.485-1.596-.443-.084-.377-.248-.163-.5.372-.436.722-.708 1.42-.708h5.232c.823.163 1.006.533 1.12 1.362l.004 5.811c-.01.321.16 1.273.738 1.485.462.152.767-.218 1.045-.512 1.252-1.33 2.146-2.9 2.945-4.527.354-.716.66-1.459.955-2.2.218-.552.562-.823 1.182-.81l5.036.004c.149 0 .3.002.445.027.848.144 1.08.51.819 1.338-.413 1.3-1.217 2.383-2.002 3.471-.84 1.162-1.738 2.284-2.57 3.453-.766 1.068-.705 1.606.245 2.533z"/></g></g></svg>